# xmcd
#
# Track frame offsets: 
#        150
#        22533
#        62603
#        93384
#        118686
#        139796
#        172493
#        204935
#        243796
#        270141
#        294912
#        321246
#
# Disc length: 4738 seconds
#
# Revision: 3
# Processed by: cddbd v1.5.2PL0 Copyright (c) Steve Scherf et al.
# Submitted via: ExactAudioCopyFreeDBPlugin 1.0
#
DISCID=9c12800c
DTITLE=Various Artist - Jazz Funk Sessions CD2
DYEAR=2005
DGENRE=Jazz+Funk
TTITLE0=Gil Scott-Heron - The Bottle
TTITLE1=Herbie Hancock - I Thought It Was You
TTITLE2=Ingram - Mi Sabrina Tequana (My Sister's Daughter)
TTITLE3=Eddie Russ - Zaius
TTITLE4=Level 42 - Sandstorm
TTITLE5=Bob James - Westchester Lady
TTITLE6=Roy Ayers - Sugar
TTITLE7=Idris Muhammad - Could Heaven Ever Be Like This
TTITLE8=Dexter Wansel - Life On Mars
TTITLE9=Wood, Brass and Steel - Funkanova
TTITLE10=First Light - A.M.
TTITLE11=Dinosaur L - Go Bang (Francois K Edit)
EXTD=YEAR: 2004
EXTT0=
EXTT1=
EXTT2=
EXTT3=
EXTT4=
EXTT5=
EXTT6=
EXTT7=
EXTT8=
EXTT9=
EXTT10=
EXTT11=
PLAYORDER=
